<svg width="24" height="24" viewBox="0 0 24 24" fill="none" xmlns="http://www.w3.org/2000/svg">
<path d="M21.1036 2.89712C20.3386 2.13212 19.2566 1.83115 18.2036 2.09415L5.09062 5.3721C3.22862 5.8371 1.98661 7.43918 1.99961 9.35818C2.01361 11.2772 3.27761 12.8622 5.14561 13.3012L9.6406 14.359L10.6986 18.8532C11.1376 20.7222 12.7226 21.9862 14.6416 21.9992C14.6516 21.9992 14.6626 21.9992 14.6726 21.9992C16.5776 21.9992 18.1656 20.7611 18.6296 18.9091L21.9076 5.79507C22.1696 4.74707 21.8696 3.66312 21.1036 2.89712ZM19.9666 5.31314L16.6886 18.4262C16.3956 19.5962 15.4446 20.0351 14.6556 20.0011C13.8646 19.9951 12.9216 19.5711 12.6456 18.3971L11.5736 13.8421L15.7076 9.70914C16.0986 9.31814 16.0986 8.68607 15.7076 8.29507C15.3166 7.90407 14.6846 7.90407 14.2936 8.29507L10.1596 12.4281L5.60459 11.3561C4.43059 11.0801 4.00559 10.1371 4.00059 9.3461C3.99559 8.5551 4.40664 7.60614 5.57664 7.31314L18.6896 4.03519C18.7846 4.01219 18.8736 4.0021 18.9566 4.0021C19.3326 4.0021 19.5866 4.20914 19.6906 4.31314C19.8156 4.43914 20.0976 4.79014 19.9666 5.31314Z" fill="#fff"/>
</svg>
